<svg width="1249" height="378" xmlns="http://www.w3.org/2000/svg" xmlns:xlink="http://www.w3.org/1999/xlink" overflow="hidden"><defs><clipPath id="clip0"><path d="M-19 175 1230 175 1230 553-19 553Z" fill-rule="evenodd" clip-rule="evenodd"/></clipPath><clipPath id="clip1"><path d="M478 261 753 261 753 536 478 536Z" fill-rule="evenodd" clip-rule="evenodd"/></clipPath><clipPath id="clip2"><path d="M478 261 753 261 753 536 478 536Z" fill-rule="evenodd" clip-rule="evenodd"/></clipPath><clipPath id="clip3"><path d="M478 261 753 261 753 536 478 536Z" fill-rule="evenodd" clip-rule="evenodd"/></clipPath><clipPath id="clip4"><path d="M-19 299 228 299 228 545-19 545Z" fill-rule="evenodd" clip-rule="evenodd"/></clipPath><clipPath id="clip5"><path d="M-19 299 229 299 229 545-19 545Z" fill-rule="evenodd" clip-rule="evenodd"/></clipPath><clipPath id="clip6"><path d="M-19 299 229 299 229 545-19 545Z" fill-rule="evenodd" clip-rule="evenodd"/></clipPath><clipPath id="clip7"><path d="M304 231 489 231 489 506 304 506Z" fill-rule="evenodd" clip-rule="evenodd"/></clipPath><clipPath id="clip8"><path d="M304 231 489 231 489 506 304 506Z" fill-rule="evenodd" clip-rule="evenodd"/></clipPath><clipPath id="clip9"><path d="M304 231 489 231 489 506 304 506Z" fill-rule="evenodd" clip-rule="evenodd"/></clipPath><clipPath id="clip10"><path d="M173.341 536.326 148.89 261.858 423.359 237.406 447.81 511.875Z" fill-rule="evenodd" clip-rule="evenodd"/></clipPath><clipPath id="clip11"><path d="M173.341 536.326 148.89 261.858 423.359 237.406 447.81 511.875Z" fill-rule="evenodd" clip-rule="evenodd"/></clipPath><clipPath id="clip12"><path d="M173.341 536.326 148.89 261.858 423.359 237.406 447.81 511.875Z" fill-rule="evenodd" clip-rule="evenodd"/></clipPath><clipPath id="clip13"><path d="M814 275 1049 275 1049 509 814 509Z" fill-rule="evenodd" clip-rule="evenodd"/></clipPath><clipPath id="clip14"><path d="M814 275 1049 275 1049 509 814 509Z" fill-rule="evenodd" clip-rule="evenodd"/></clipPath><clipPath id="clip15"><path d="M814 275 1049 275 1049 509 814 509Z" fill-rule="evenodd" clip-rule="evenodd"/></clipPath><clipPath id="clip16"><path d="M27 176 274 176 274 423 27 423Z" fill-rule="evenodd" clip-rule="evenodd"/></clipPath><clipPath id="clip17"><path d="M27 176 274 176 274 423 27 423Z" fill-rule="evenodd" clip-rule="evenodd"/></clipPath><clipPath id="clip18"><path d="M27 176 274 176 274 423 27 423Z" fill-rule="evenodd" clip-rule="evenodd"/></clipPath><clipPath id="clip19"><path d="M1033 294 1229 294 1229 490 1033 490Z" fill-rule="evenodd" clip-rule="evenodd"/></clipPath><clipPath id="clip20"><path d="M1033 294 1229 294 1229 490 1033 490Z" fill-rule="evenodd" clip-rule="evenodd"/></clipPath><clipPath id="clip21"><path d="M1033 294 1229 294 1229 490 1033 490Z" fill-rule="evenodd" clip-rule="evenodd"/></clipPath><clipPath id="clip22"><path d="M704 296 909 296 909 501 704 501Z" fill-rule="evenodd" clip-rule="evenodd"/></clipPath><clipPath id="clip23"><path d="M704 296 909 296 909 501 704 501Z" fill-rule="evenodd" clip-rule="evenodd"/></clipPath><clipPath id="clip24"><path d="M704 296 909 296 909 501 704 501Z" fill-rule="evenodd" clip-rule="evenodd"/></clipPath><clipPath id="clip25"><path d="M904 272 1138 272 1138 507 904 507Z" fill-rule="evenodd" clip-rule="evenodd"/></clipPath><clipPath id="clip26"><path d="M904 272 1138 272 1138 507 904 507Z" fill-rule="evenodd" clip-rule="evenodd"/></clipPath><clipPath id="clip27"><path d="M904 272 1138 272 1138 507 904 507Z" fill-rule="evenodd" clip-rule="evenodd"/></clipPath><clipPath id="clip28"><path d="M388 238 484 238 484 366 388 366Z" fill-rule="evenodd" clip-rule="evenodd"/></clipPath><clipPath id="clip29"><path d="M388 238 484 238 484 366 388 366Z" fill-rule="evenodd" clip-rule="evenodd"/></clipPath><clipPath id="clip30"><path d="M388 238 484 238 484 366 388 366Z" fill-rule="evenodd" clip-rule="evenodd"/></clipPath><clipPath id="clip31"><path d="M342.098 318.062 424.098 269.515 562.44 503.188 480.44 551.735Z" fill-rule="evenodd" clip-rule="evenodd"/></clipPath><clipPath id="clip32"><path d="M342.098 318.062 424.098 269.515 562.44 503.188 480.44 551.735Z" fill-rule="evenodd" clip-rule="evenodd"/></clipPath><clipPath id="clip33"><path d="M342.098 318.062 424.098 269.515 562.44 503.188 480.44 551.735Z" fill-rule="evenodd" clip-rule="evenodd"/></clipPath></defs><g clip-path="url(#clip0)" transform="translate(19 -175)"><g clip-path="url(#clip1)"><g clip-path="url(#clip2)"><g clip-path="url(#clip3)"><path d="M712.896 295.375 518.104 295.375C514.94 295.375 512.375 297.94 512.375 301.104L512.375 495.896C512.375 499.06 514.94 501.625 518.104 501.625L712.896 501.625C716.06 501.625 718.625 499.06 718.625 495.896L718.625 301.104C718.625 297.94 716.06 295.375 712.896 295.375ZM652.253 424.281 658.469 424.281 658.469 489.536C658.455 489.746 658.455 489.957 658.469 490.167L621.229 490.167 621.229 424.281 627.445 424.281C630.31 424.281 632.688 421.13 632.688 417.206L632.688 306.833 647.01 306.833 647.01 417.177C647.01 421.102 649.359 424.281 652.253 424.281ZM578.747 424.281C581.612 424.281 583.99 421.13 583.99 417.206L583.99 306.833 598.313 306.833 598.313 417.177C598.313 421.102 600.661 424.253 603.555 424.253L609.771 424.253 609.771 490.167 572.531 490.167 572.531 424.281ZM523.833 306.833 549.615 306.833 549.615 417.177C549.615 421.102 551.964 424.253 554.857 424.253L561.073 424.253 561.073 490.167 523.833 490.167ZM707.167 490.167 669.927 490.167C669.941 489.957 669.941 489.746 669.927 489.536L669.927 424.281 676.143 424.281C679.008 424.281 681.385 421.13 681.385 417.206L681.385 306.833 707.167 306.833Z"/></g></g></g><g clip-path="url(#clip4)"><g clip-path="url(#clip5)"><g clip-path="url(#clip6)"><path d="M214.225 29.4688 78.4125 61.2437 78.4125 171.175C71.75 169.637 63.55 170.15 55.6063 173.225 38.95 179.375 28.7 193.213 32.8 204.231 36.9 215.25 53.5562 219.35 70.2125 213.456 85.3312 208.075 95.0687 196.031 93.7875 185.781L93.7875 78.925 198.85 54.325 198.85 147.856C192.188 146.319 183.988 146.831 175.787 149.906 159.131 156.056 148.881 169.894 152.981 180.912 157.081 191.931 173.738 196.031 190.394 190.137 204.231 185.012 213.456 174.762 214.225 165.025L214.225 165.025 214.225 29.4688Z" transform="matrix(1.00407 0 -0 1 -19 299)"/></g></g></g><g clip-path="url(#clip7)"><g clip-path="url(#clip8)"><g clip-path="url(#clip9)"><path d="M117.798 98.3633C112.93 83.6433 97.7117 83.2408 97.4817 83.26L95.8333 67.5625C105.417 58.8225 113.083 46.115 113.083 31.3758 113.083 9.58333 107.333 7.66667 104.094 7.34083 100.855 7.015 93.3417 11.9408 88.895 23.0958 84.4483 34.2508 86.5758 51.8458 87.17 56.6183 87.17 56.6183 59.6658 72.2008 59.9342 100.702 59.9342 105.359 63.02 131.905 96.715 131.828 98.0887 137.33 98.7331 142.987 98.6317 148.657 97.8075 158.24 92.3258 160.674 87.9175 160.962 92.3578 156.421 92.276 149.14 87.7348 144.699 83.1937 140.259 75.9128 140.341 71.4725 144.882 69.3739 147.028 68.1977 149.91 68.195 152.912 68.2753 157.039 70.3551 160.87 73.7725 163.185 88.7033 174.091 106.835 163.492 105.321 146.97 105.129 144.881 103.692 133.017 103.289 129.835 103.289 129.835 111.933 126.002 115.767 119.37 119.184 112.909 119.914 105.36 117.798 98.3633ZM103.174 25.415C107.333 26.8333 105.417 35.2475 104.094 38.3333 102.772 41.4192 97.75 50.6383 93.7825 52.1908 92 35.305 97.75 24.9167 103.174 25.415ZM73.025 115.575C59.7425 86.4033 89.7958 71.1275 90.0833 70.9167 90.4667 74.0792 90.5625 81.5542 90.9458 84.7358 77.8742 89.3742 75.9575 100.663 76.6667 106.375 78.3917 120.079 91.8658 121.977 92.7092 119.792 93.09 119.092 92.9984 118.23 92.4792 117.626 80.5767 104.439 92.0192 98.8425 92.6517 98.6125L95.8333 125.235C86.02 127.458 75.4783 120.999 73.025 115.575ZM102.331 122.877 99.4367 97.52C105.992 96.7917 117.492 109.806 102.331 122.877Z" transform="matrix(1 -0 -0 -1.49457 305 506)"/></g></g></g><g clip-path="url(#clip10)"><g clip-path="url(#clip11)"><g clip-path="url(#clip12)"><path d="M268.166 319.442C266.544 312.707 270.689 305.933 277.425 304.311 277.723 304.239 278.025 304.178 278.328 304.128 285.357 302.821 292.115 307.459 293.423 314.488 294.73 321.517 290.092 328.275 283.063 329.583 279.512 330.243 275.846 329.39 272.951 327.229 270.43 325.332 268.719 322.549 268.166 319.442Z"/><path d="M213.844 324.282C212.222 317.547 216.368 310.772 223.103 309.151 223.401 309.078 223.703 309.018 224.007 308.968 231.036 307.66 237.794 312.299 239.101 319.327 240.408 326.357 235.77 333.115 228.741 334.422 225.19 335.082 221.524 334.229 218.63 332.068 216.108 330.171 214.398 327.389 213.844 324.282Z"/><path d="M228.226 352.769C217.846 359.745 209.871 369.754 205.391 381.43 200.08 395.531 198.595 410.785 201.088 425.645L201.113 425.931C210.644 469.835 240.829 473.861 250.36 472.81 274.05 469.921 287.054 454.152 285.543 437.198 284.331 423.589 265.271 408.573 248.148 421.453 228.905 436.74 249.632 454.604 241.263 457.713 239.308 458.406 211.975 452.426 210.243 415.838L210.205 415.409C211.398 393.229 228.37 384.801 248.75 380.017 291.127 370.479 332.17 395.467 354.181 413.851 372.967 428.373 391.144 453.525 399.737 463.94 400.624 465.037 402.177 465.326 403.4 464.622L403.4 464.622C404.797 463.873 405.322 462.133 404.573 460.736 404.554 460.701 404.534 460.667 404.514 460.633 373.479 406.945 320.517 342.299 269.892 340.441 255.049 340.042 240.462 344.359 228.226 352.769Z"/></g></g></g><g clip-path="url(#clip13)"><g clip-path="url(#clip14)"><g clip-path="url(#clip15)"><path d="M137.646 46.1419C132.995 43.123 129.307 38.8343 127.018 33.7837L127.018 29.1037C127.018 24.3921 123.199 20.5725 118.487 20.5725 113.775 20.5725 109.956 24.3921 109.956 29.1037L109.956 158.828C101.663 157.414 93.1435 158.256 85.2881 161.265 66.6656 168.017 55.2337 183.568 59.7188 195.975 64.2038 208.382 82.9725 213.038 101.595 206.237 114.563 201.435 123.996 192.563 127.018 183.251L127.018 90.9187C128.604 92.2679 130.3 93.4827 132.088 94.5506 160.704 111.467 144.885 138.938 158.925 138.938 176.597 139.084 177.328 72.5888 137.646 46.1419Z" transform="matrix(1.00427 0 -0 1 814 275)"/></g></g></g><g clip-path="url(#clip16)"><g clip-path="url(#clip17)"><g clip-path="url(#clip18)"><path d="M59.775 392.531 195.587 360.756 195.587 250.825C202.25 252.363 210.45 251.85 218.394 248.775 235.05 242.625 245.3 228.787 241.2 217.769 237.1 206.75 220.444 202.65 203.788 208.544 188.669 213.925 178.931 225.969 180.212 236.219L180.212 343.075 75.15 367.675 75.15 274.144C81.8125 275.681 90.0125 275.169 98.2125 272.094 114.869 265.944 125.119 252.106 121.019 241.088 116.919 230.069 100.262 225.969 83.6062 231.863 69.7688 236.988 60.5437 247.238 59.775 256.975L59.775 256.975 59.775 392.531Z"/></g></g></g><g clip-path="url(#clip19)"><g clip-path="url(#clip20)"><g clip-path="url(#clip21)"><path d="M1137.13 469.583 1137.13 444.675C1160.2 441.613 1177.96 422.013 1177.96 398.125L1177.96 377.708 1165.71 377.708 1165.71 398.125C1165.71 417.317 1150.19 432.833 1131 432.833 1111.81 432.833 1096.29 417.317 1096.29 398.125L1096.29 377.708 1084.04 377.708 1084.04 398.125C1084.04 422.013 1101.8 441.613 1124.88 444.675L1124.88 469.583 1082 469.583 1082 481.833 1180 481.833 1180 469.583 1137.13 469.583Z"/><path d="M1131 424.667C1145.7 424.667 1157.54 412.825 1157.54 398.125L1137.13 398.125 1137.13 389.958 1157.54 389.958 1157.54 377.708 1137.13 377.708 1137.13 369.542 1157.54 369.542 1157.54 357.292 1137.13 357.292 1137.13 349.125 1157.54 349.125 1157.54 336.875 1137.13 336.875 1137.13 328.708 1157.54 328.708C1157.54 314.008 1145.7 302.167 1131 302.167 1116.3 302.167 1104.46 314.008 1104.46 328.708L1104.46 398.125C1104.46 412.825 1116.3 424.667 1131 424.667Z"/></g></g></g><g clip-path="url(#clip22)"><g clip-path="url(#clip23)"><g clip-path="url(#clip24)"><path d="M806.5 466.833 806.5 458.292C839.385 458.292 866.292 431.385 866.292 398.5L874.833 398.5C874.833 436.083 844.083 466.833 806.5 466.833ZM780.875 398.5C780.875 384.406 792.406 372.875 806.5 372.875 820.594 372.875 832.125 384.406 832.125 398.5 832.125 412.594 820.594 424.125 806.5 424.125 792.406 424.125 780.875 412.594 780.875 398.5ZM768.063 398.5 759.521 398.5C759.521 372.661 780.661 351.521 806.5 351.521L806.5 360.063C785.359 360.063 768.063 377.359 768.063 398.5ZM746.708 398.5 738.167 398.5C738.167 360.917 768.917 330.167 806.5 330.167L806.5 338.708C773.615 338.708 746.708 365.615 746.708 398.5ZM844.938 398.5 853.479 398.5C853.479 424.339 832.339 445.479 806.5 445.479L806.5 436.938C827.641 436.938 844.938 419.641 844.938 398.5ZM806.5 317.354C761.656 317.354 725.354 353.656 725.354 398.5 725.354 443.344 761.656 479.646 806.5 479.646 851.344 479.646 887.646 443.344 887.646 398.5 887.646 353.656 851.344 317.354 806.5 317.354Z"/></g></g></g><g clip-path="url(#clip25)"><g clip-path="url(#clip26)"><g clip-path="url(#clip27)"><path d="M1000.35 459.858C1005.01 462.877 1008.69 467.166 1010.98 472.216L1010.98 476.896C1010.98 481.608 1014.8 485.427 1019.51 485.427 1024.22 485.427 1028.04 481.608 1028.04 476.896L1028.04 347.172C1036.34 348.586 1044.86 347.744 1052.71 344.735 1071.33 337.983 1082.77 322.432 1078.28 310.025 1073.8 297.618 1055.03 292.962 1036.41 299.763 1023.44 304.565 1014 313.438 1010.98 322.749L1010.98 415.081C1009.4 413.732 1007.7 412.517 1005.91 411.449 977.296 394.533 993.115 367.063 979.075 367.063 961.403 366.916 960.672 433.411 1000.35 459.858Z"/></g></g></g><g clip-path="url(#clip28)"><g clip-path="url(#clip29)"><g clip-path="url(#clip30)"><path d="M48 14C27 14 10 31 10 52L10 70C10 71.7 11.3 73 13 73 14.7 73 16 71.7 16 70L16 69 20 69 20 78C20 80.2 21.8 82 24 82L30 82C32.2 82 34 80.2 34 78L34 56C34 53.8 32.2 52 30 52L24 52C21.8 52 20 53.8 20 56L20 65 16 65 16 52C16 34.4 30.4 20 48 20 65.6 20 80 34.4 80 52L80 65 76 65 76 56C76 53.8 74.2 52 72 52L66 52C63.8 52 62 53.8 62 56L62 78C62 80.2 63.8 82 66 82L72 82C74.2 82 76 80.2 76 78L76 69 80 69 80 70C80 71.7 81.3 73 83 73 84.7 73 86 71.7 86 70L86 52C86 31 69 14 48 14Z" transform="matrix(-5.82819e-08 1.33333 -1 -4.37114e-08 484 238)"/></g></g></g><g clip-path="url(#clip31)"><g clip-path="url(#clip32)"><g clip-path="url(#clip33)"><path d="M56.0543 18.7907C54.1604 17.5613 52.6584 15.8147 51.7264 13.758L51.7264 11.8521C51.7264 9.93334 50.1709 8.37787 48.2522 8.37787 46.3334 8.37787 44.7779 9.93334 44.7779 11.8521L44.7779 64.6804C41.401 64.1048 37.9314 64.4477 34.7324 65.673 27.1487 68.4226 22.4932 74.7556 24.3197 79.8082 26.1461 84.8607 33.7894 86.7566 41.3732 83.9872 46.654 82.0317 50.4955 78.4185 51.7264 74.6266L51.7264 37.0254C52.3724 37.5749 53.063 38.0696 53.7911 38.5045 65.4447 45.3934 59.0025 56.5804 64.7201 56.5804 71.9167 56.64 72.2145 29.5608 56.0543 18.7907Z" transform="matrix(0.860501 -0.509448 1.45176 2.45214 342.098 318.062)"/></g></g></g></g></svg>