<svg width="539" height="543" xmlns="http://www.w3.org/2000/svg" xmlns:xlink="http://www.w3.org/1999/xlink" overflow="hidden"><defs><clipPath id="clip0"><path d="M278 98 817 98 817 641 278 641Z" fill-rule="evenodd" clip-rule="evenodd"/></clipPath><clipPath id="clip1"><path d="M510.547 491.979 339.396 359.229 472.146 188.078 643.297 320.828Z" fill-rule="evenodd" clip-rule="evenodd"/></clipPath><clipPath id="clip2"><path d="M510.547 491.979 339.396 359.229 472.146 188.078 643.297 320.828Z" fill-rule="evenodd" clip-rule="evenodd"/></clipPath><clipPath id="clip3"><path d="M510.547 491.979 339.396 359.229 472.146 188.078 643.297 320.828Z" fill-rule="evenodd" clip-rule="evenodd"/></clipPath><clipPath id="clip4"><path d="M595 264 743 264 743 412 595 412Z" fill-rule="evenodd" clip-rule="evenodd"/></clipPath><clipPath id="clip5"><path d="M595 264 743 264 743 412 595 412Z" fill-rule="evenodd" clip-rule="evenodd"/></clipPath><clipPath id="clip6"><path d="M595 264 743 264 743 412 595 412Z" fill-rule="evenodd" clip-rule="evenodd"/></clipPath></defs><g clip-path="url(#clip0)" transform="translate(-278 -98)"><text font-family="Arial Black,Gadget,sans-serif" font-weight="800" font-stretch="condensed" font-size="87" transform="translate(318 551)">HARMONI</text><rect x="371" y="145" width="352" height="276"/><path d="M325 99 769 99 723 145 371 145Z" fill="#323232" fill-rule="evenodd"/><path d="M325 467 371 421 723 421 769 467Z" fill-rule="evenodd"/><path d="M325 99 371 145 371 421 325 467Z" fill="#666666" fill-rule="evenodd"/><path d="M769 99 769 467 723 421 723 145Z" fill-rule="evenodd"/><path d="M325 99 769 99 769 467 325 467ZM371 145 723 145 723 421 371 421ZM325 99 371 145M325 467 371 421M769 99 723 145M769 467 723 421" stroke="#FFFFFF" stroke-width="2" stroke-miterlimit="8" fill="none" fill-rule="evenodd"/><g clip-path="url(#clip1)"><g clip-path="url(#clip2)"><g clip-path="url(#clip3)"><path d="M377.405 355.874 489.042 407.055 548.365 330.572C552.17 335.237 558.152 339.306 565.338 341.453 580.245 346.162 594.844 342.066 597.937 332.188 601.031 322.309 591.655 310.468 576.886 305.581 563.463 301.166 550.189 304.29 545.55 312.113L487.886 386.457 401.516 346.877 451.988 281.804C455.794 286.469 461.775 290.537 469.14 292.823 484.047 297.532 498.645 293.436 501.739 283.558 504.833 273.679 495.457 261.838 480.688 256.95 468.295 253.049 456.345 255.202 450.556 261.562L450.556 261.562 377.405 355.874Z" stroke="#000000" stroke-width="3.00833" fill="#FFFFFF"/></g></g></g><g clip-path="url(#clip4)"><g clip-path="url(#clip5)"><g clip-path="url(#clip6)"><path d="M673.625 396.583 673.625 377.775C691.046 375.462 704.458 360.663 704.458 342.625L704.458 327.208 695.208 327.208 695.208 342.625C695.208 357.117 683.492 368.833 669 368.833 654.508 368.833 642.792 357.117 642.792 342.625L642.792 327.208 633.542 327.208 633.542 342.625C633.542 360.663 646.954 375.462 664.375 377.775L664.375 396.583 632 396.583 632 405.833 706 405.833 706 396.583 673.625 396.583Z" stroke="#000000" stroke-width="1.01197" fill="#FFFFFF"/><path d="M669 362.667C680.1 362.667 689.042 353.725 689.042 342.625L673.625 342.625 673.625 336.458 689.042 336.458 689.042 327.208 673.625 327.208 673.625 321.042 689.042 321.042 689.042 311.792 673.625 311.792 673.625 305.625 689.042 305.625 689.042 296.375 673.625 296.375 673.625 290.208 689.042 290.208C689.042 279.108 680.1 270.167 669 270.167 657.9 270.167 648.958 279.108 648.958 290.208L648.958 342.625C648.958 353.725 657.9 362.667 669 362.667Z" stroke="#000000" stroke-width="1.01197" fill="#FFFFFF"/></g></g></g></g></svg>