<svg width="180" height="170" xmlns="http://www.w3.org/2000/svg" xmlns:xlink="http://www.w3.org/1999/xlink" overflow="hidden"><defs><clipPath id="clip0"><path d="M699 135 879 135 879 305 699 305Z" fill-rule="evenodd" clip-rule="evenodd"/></clipPath><clipPath id="clip1"><path d="M710 136 878 136 878 304 710 304Z" fill-rule="evenodd" clip-rule="evenodd"/></clipPath><clipPath id="clip2"><path d="M710 136 878 136 878 304 710 304Z" fill-rule="evenodd" clip-rule="evenodd"/></clipPath><clipPath id="clip3"><path d="M710 136 878 136 878 304 710 304Z" fill-rule="evenodd" clip-rule="evenodd"/></clipPath></defs><g clip-path="url(#clip0)" transform="translate(-699 -135)"><g clip-path="url(#clip1)"><g clip-path="url(#clip2)"><g clip-path="url(#clip3)"><path d="M822 188.5C822 203.964 809.464 216.5 794 216.5 778.536 216.5 766 203.964 766 188.5 766 173.036 778.536 160.5 794 160.5 809.464 160.5 822 173.036 822 188.5Z"/><path d="M844.4 240.3C836.7 234 826.9 229.8 817.1 227 815.35 226.492 813.6 226.02 811.85 225.6L798.375 279.5 850 279.5 850 251.5C849.909 247.116 847.853 243.004 844.4 240.3Z"/><path d="M805.253 237.5 794 230.798 782.747 237.5C782.399 237.667 781.981 237.52 781.814 237.172 781.755 237.051 781.733 236.916 781.75 236.783L781.75 221.383C781.75 220.788 782.292 220.385 782.747 220.665L794 227.193 805.253 220.577C805.708 220.298 806.25 220.7 806.25 221.295L806.25 236.695C806.351 237.068 806.131 237.453 805.758 237.554 805.589 237.6 805.408 237.581 805.253 237.5Z"/><path d="M796.625 243.625C796.625 245.075 795.45 246.25 794 246.25 792.55 246.25 791.375 245.075 791.375 243.625 791.375 242.175 792.55 241 794 241 795.45 241 796.625 242.175 796.625 243.625Z"/><path d="M796.625 254.125C796.625 255.575 795.45 256.75 794 256.75 792.55 256.75 791.375 255.575 791.375 254.125 791.375 252.675 792.55 251.5 794 251.5 795.45 251.5 796.625 252.675 796.625 254.125Z"/><path d="M796.625 264.625C796.625 266.075 795.45 267.25 794 267.25 792.55 267.25 791.375 266.075 791.375 264.625 791.375 263.175 792.55 262 794 262 795.45 262 796.625 263.175 796.625 264.625Z"/><path d="M750.67 245.427 750.67 249.592 772.633 249.592 774.068 266.655C774.137 268.623 773.375 270.528 771.968 271.905 770.311 273.63 768.264 274.932 766 275.703L766 279.5 789.625 279.5 776.167 225.688C774.417 226.09 772.667 226.527 770.917 227 762.821 229.365 755.097 232.858 747.975 237.378 749.725 239.696 750.671 242.522 750.67 245.427Z"/><path d="M802.75 286.5 768.73 286.5C768.747 286.413 768.747 286.324 768.73 286.237 768.73 285.625 768.083 285.153 766.665 284.785 766.087 284.651 765.503 284.546 764.915 284.47L764.268 284.47C763.27 284.138 762.71 283.735 762.71 283.35L762.71 273.2C765.284 272.88 767.676 271.703 769.5 269.857 770.291 269.112 770.74 268.074 770.742 266.987L769.57 252.987 752.753 252.987 751.755 266.987C751.728 268.056 752.153 269.086 752.927 269.823 754.806 271.716 757.276 272.908 759.927 273.2L759.927 283.385C759.927 283.787 759.315 284.208 758.422 284.505 757.559 284.559 756.703 284.7 755.867 284.925 754.607 285.292 753.925 285.747 753.802 286.325 753.802 286.43 753.802 286.5 753.89 286.588L745.91 286.588C746.715 286.133 747.17 285.607 747.17 285.047L747.17 245.427C747.184 241.761 745.162 238.39 741.92 236.677L740.958 219.895 742.27 219.895 742.27 219.073C742.277 217.653 741.364 216.393 740.013 215.957 739.831 215.837 739.618 215.77 739.4 215.765L733.625 215.765C733.406 215.767 733.193 215.834 733.013 215.957 731.658 216.391 730.738 217.65 730.737 219.073L730.737 219.895 732.05 219.895 731 236.677C727.758 238.39 725.736 241.761 725.75 245.427L725.75 284.96C725.75 285.52 726.205 286.045 727.01 286.5L717 286.5C715.067 286.5 713.5 288.067 713.5 290 713.5 291.933 715.067 293.5 717 293.5L802.75 293.5C804.683 293.5 806.25 291.933 806.25 290 806.25 288.067 804.683 286.5 802.75 286.5ZM754.958 260.635 755.255 255.385 767.505 255.385 767.872 260.635Z"/></g></g></g><path d="M700.779 163.768 718.268 163.768 718.268 145.911 734.732 145.911 734.732 163.768 752.222 163.768 752.222 180.232 734.732 180.232 734.732 198.089 718.268 198.089 718.268 180.232 700.779 180.232Z" stroke="#000000" stroke-miterlimit="8" fill-rule="evenodd"/></g></svg>